/* XPM */
static char *dummy[]={
"15 15 38 1",
"a c None",
"o c None",
"J c None",
"I c #585858",
"G c #585858",
"E c #585858",
"B c #585858",
"z c #585858",
"q c #585858",
"b c #585858",
"d c #585858",
"e c #585858",
"# c #585858",
"i c #585858",
"l c #585858",
"g c #585858",
"h c #585858",
"j c #585858",
"m c #585858",
"t c #585858",
"u c #585858",
"x c #585858",
"A c #585858",
"w c #585858",
"C c #585858",
"s c #585858",
"n c #585858",
"r c #585858",
"H c #585858",
"F c #585858",
"D c #585858",
"v c #585858",
"y c #585858",
"p c #585858",
"k c #585858",
"c c #585858",
"f c #585858",
". c #585858",
"..#aaaaaaaaabc.",
"...daaaaaaaef..",
"#...eaaaaagc..h",
"ad...iaaaj..kga",
"aae..flam..c#aa",
"aaaif.cn..cbaaa",
"aaaolc...pqaaaa",
"aaaaar...saaaaa",
"aaaat.....eaaaa",
"aaau..vw...iaaa",
"aax..yzae..claa",
"aA..vBaaaic.fia",
"C..DEaaaaalf..e",
"..FGaaaaaaai...",
".HIaaaaaaaaJe.."};
