/* XPM */
static char *dummy[]={
"15 15 35 1",
"b c None",
"r c None",
"G c #ff0044",
"D c #ff0044",
"B c #ff0044",
"z c #ff0044",
"c c #ff0044",
"g c #ff0044",
"f c #ff0044",
"q c #ff0044",
"e c #ff0044",
"h c #ff0044",
"a c #ff0044",
"k c #ff0044",
"n c #ff0044",
"m c #ff0044",
"j c #ff0044",
"u c #ff0044",
"v c #ff0044",
"A c #ff0044",
"C c #ff0044",
"x c #ff0044",
"t c #ff0044",
"p c #ff0044",
"s c #ff0044",
"F c #ff0044",
"E c #ff0044",
"w c #ff0044",
"y c #ff0044",
"i c #ff0044",
"d c #ff0044",
"o c #ff0044",
"# c #ff0044",
"l c #ff0044",
". c #ff0044",
".#abbbbbbbbbcd.",
"#..ebbbbbbbfd..",
"a...gbbbbbhi..j",
"be...ebbbkl.#mb",
"bbg...kbk...nbb",
"bbbe..op...qrbb",
"bbbrko...lcbbbb",
"bbbbbs...tbbbbb",
"bbbru.....fbbbb",
"bbbv..wx...hbbb",
"bbv..yzbf...kbb",
"bA..yBbbbh..dkb",
"C..wDbbbbbkd.la",
"..EDbbbbbbbkl..",
".FGbbbbbbbbra.."};
