/* XPM */
static char *dummy[]={
"15 15 49 1",
"g c None",
". c None",
"b c #ff0044",
"N c #ff0044",
"T c #ff0044",
"j c #ff0044",
"a c #ff0044",
"Q c #ff0044",
"S c #ff0044",
"o c #ff0044",
"h c #ff0044",
"c c #ff0044",
"m c #ff0044",
"R c #ff0044",
"U c #ff0044",
"d c #ff0044",
"# c #ff0044",
"A c #ff0044",
"D c #ff0044",
"I c #ff0044",
"P c #ff0044",
"t c #ff0044",
"K c #ff0044",
"w c #ff0044",
"p c #ff0044",
"l c #ff0044",
"H c #ff0044",
"r c #ff0044",
"f c #ff0044",
"C c #ff0044",
"M c #ff0044",
"x c #ff0044",
"J c #ff0044",
"O c #ff0044",
"u c #ff0044",
"s c #ff0044",
"F c #ff0044",
"z c #ff0044",
"i c #ff0044",
"v c #ff0044",
"n c #ff0044",
"B c #ff0044",
"E c #ff0044",
"G c #ff0044",
"k c #ff0044",
"L c #ff0044",
"q c #ff0044",
"y c #ff0044",
"e c #ff0044",
"...............",
".##a.......bc#.",
".deefggggghie#.",
".jkeelgggmneeo.",
"..pqeerg#nees..",
"..gtqeeuveesg..",
"..ggwkeeeesgg..",
"..gggxyeezggg..",
"..ggABeeeeCgg..",
"..gDEeeFGeeH...",
"..IEeeJgKLeeM..",
".NBeeOgggPkeeQ.",
".ReeOgggggtGe#.",
".##S.......TU#.",
"..............."};
