/* XPM */
static char *dummy[]={
"15 15 13 1",
"b c None",
"g c None",
"h c None",
"j c None",
"d c None",
"k c None",
"e c None",
"i c None",
"c c None",
"# c #585858",
"f c #595758",
"a c #585858",
". c #585858",
"...............",
"...............",
"...............",
"...########a...",
"...#bcdeebb#...",
"...#bcfghbb#...",
"...#beeijbb#...",
"...#beccebb#...",
"...#beccebb#...",
"...#bceeebb#...",
"...#bckeebb#...",
"...a########...",
"...............",
"...............",
"..............."};
