/* XPM */
static char *dummy[]={
"15 15 4 1",
"a c None",
"b c None",
"# c #ff0044",
". c #ff0044",
"...............",
"...............",
"...............",
"...#########...",
"...#aabbbaa#...",
"...#abbbbaa#...",
"...#abbbbaa#...",
"...#abbbbaa#...",
"...#abbbbaa#...",
"...#aaabbaa#...",
"...#aabbbaa#...",
"...#########...",
"...............",
"...............",
"..............."};
